<svg width="14" height="12" viewBox="0 0 14 12" fill="none" xmlns="http://www.w3.org/2000/svg">
<path d="M13.6124 5.73317C12.2657 2.6065 9.7324 0.666504 6.99907 0.666504C4.26573 0.666504 1.7324 2.6065 0.385735 5.73317C0.349026 5.81728 0.330078 5.90806 0.330078 5.99984C0.330078 6.09161 0.349026 6.18239 0.385735 6.2665C1.7324 9.39317 4.26573 11.3332 6.99907 11.3332C9.7324 11.3332 12.2657 9.39317 13.6124 6.2665C13.6491 6.18239 13.6681 6.09161 13.6681 5.99984C13.6681 5.90806 13.6491 5.81728 13.6124 5.73317ZM6.99907 9.99984C4.88573 9.99984 2.88573 8.47317 1.7324 5.99984C2.88573 3.5265 4.88573 1.99984 6.99907 1.99984C9.1124 1.99984 11.1124 3.5265 12.2657 5.99984C11.1124 8.47317 9.1124 9.99984 6.99907 9.99984ZM6.99907 3.33317C6.47165 3.33317 5.95608 3.48957 5.51755 3.78258C5.07902 4.0756 4.73722 4.49208 4.53539 4.97935C4.33356 5.46662 4.28075 6.0028 4.38364 6.52008C4.48653 7.03736 4.74051 7.51252 5.11345 7.88546C5.48639 8.2584 5.96154 8.51237 6.47883 8.61526C6.99611 8.71816 7.53229 8.66535 8.01956 8.46352C8.50683 8.26168 8.9233 7.91989 9.21632 7.48136C9.50934 7.04283 9.66574 6.52725 9.66574 5.99984C9.66574 5.29259 9.38478 4.61432 8.88469 4.11422C8.38459 3.61412 7.70631 3.33317 6.99907 3.33317ZM6.99907 7.33317C6.73536 7.33317 6.47757 7.25497 6.25831 7.10846C6.03904 6.96195 5.86815 6.75372 5.76723 6.51008C5.66631 6.26645 5.63991 5.99836 5.69135 5.73972C5.7428 5.48108 5.86979 5.2435 6.05626 5.05703C6.24273 4.87056 6.48031 4.74357 6.73895 4.69212C6.99759 4.64068 7.26568 4.66708 7.50931 4.768C7.75295 4.86891 7.96119 5.03981 8.10769 5.25908C8.2542 5.47834 8.3324 5.73613 8.3324 5.99984C8.3324 6.35346 8.19193 6.6926 7.94188 6.94265C7.69183 7.19269 7.35269 7.33317 6.99907 7.33317Z" fill="black"/>
</svg>
