<svg width="14" height="14" viewBox="0 0 14 14" fill="none" xmlns="http://www.w3.org/2000/svg">
<path d="M6.29281 3.05329C6.52665 3.01745 6.7629 2.99962 6.99947 2.99996C9.11947 2.99996 11.1128 4.52663 12.2728 6.99996C12.0954 7.37636 11.895 7.74149 11.6728 8.09329C11.6023 8.2025 11.5652 8.32995 11.5661 8.45996C11.5676 8.60545 11.6167 8.74646 11.7058 8.86148C11.7949 8.97649 11.9192 9.0592 12.0597 9.09697C12.2002 9.13474 12.3492 9.12551 12.484 9.07068C12.6188 9.01585 12.7319 8.91843 12.8061 8.79329C13.1168 8.30525 13.3866 7.7924 13.6128 7.25996C13.6486 7.17678 13.667 7.08718 13.667 6.99663C13.667 6.90608 13.6486 6.81648 13.6128 6.73329C12.2661 3.60663 9.73281 1.66663 6.99947 1.66663C6.68658 1.66505 6.3742 1.69183 6.06614 1.74663C5.97859 1.76151 5.89483 1.79349 5.81964 1.84075C5.74446 1.888 5.67931 1.9496 5.62793 2.02203C5.57655 2.09446 5.53994 2.1763 5.52018 2.26288C5.50043 2.34946 5.49792 2.43908 5.51281 2.52663C5.52769 2.61418 5.55967 2.69793 5.60692 2.77312C5.65418 2.84831 5.71578 2.91346 5.78821 2.96484C5.86064 3.01622 5.94248 3.05283 6.02906 3.07258C6.11564 3.09234 6.20526 3.09484 6.29281 3.07996V3.05329ZM1.47281 0.526627C1.41065 0.464468 1.33685 0.415161 1.25564 0.381521C1.17442 0.347881 1.08738 0.330566 0.999473 0.330566C0.911566 0.330566 0.824521 0.347881 0.743306 0.381521C0.662092 0.415161 0.588298 0.464468 0.526139 0.526627C0.400603 0.652163 0.330078 0.822426 0.330078 0.999961C0.330078 1.1775 0.400603 1.34776 0.526139 1.47329L2.59281 3.53329C1.64985 4.44098 0.899377 5.52929 0.386139 6.73329C0.34943 6.8174 0.330483 6.90819 0.330483 6.99996C0.330483 7.09173 0.34943 7.18252 0.386139 7.26663C1.73281 10.3933 4.26614 12.3333 6.99947 12.3333C8.19754 12.325 9.36732 11.9683 10.3661 11.3066L12.5261 13.4733C12.5881 13.5358 12.6618 13.5854 12.7431 13.6192C12.8243 13.6531 12.9115 13.6705 12.9995 13.6705C13.0875 13.6705 13.1746 13.6531 13.2559 13.6192C13.3371 13.5854 13.4108 13.5358 13.4728 13.4733C13.5353 13.4113 13.5849 13.3376 13.6187 13.2563C13.6526 13.1751 13.67 13.088 13.67 13C13.67 12.912 13.6526 12.8248 13.6187 12.7436C13.5849 12.6623 13.5353 12.5886 13.4728 12.5266L1.47281 0.526627ZM5.71281 6.65329L7.34614 8.28663C7.23346 8.31894 7.11668 8.33466 6.99947 8.33329C6.64585 8.33329 6.30671 8.19282 6.05666 7.94277C5.80662 7.69272 5.66614 7.35358 5.66614 6.99996C5.66477 6.88275 5.68049 6.76597 5.71281 6.65329ZM6.99947 11C4.87947 11 2.88614 9.47329 1.73281 6.99996C2.16353 6.04913 2.77485 5.19101 3.53281 4.47329L4.71281 5.66663C4.43564 6.17249 4.32997 6.75459 4.41164 7.3256C4.49332 7.89661 4.75795 8.42574 5.16582 8.83361C5.5737 9.24148 6.10283 9.50611 6.67383 9.58779C7.24484 9.66947 7.82694 9.5638 8.33281 9.28663L9.39281 10.3333C8.66687 10.7605 7.84176 10.9904 6.99947 11Z" fill="black"/>
</svg>
