<svg width="35" height="36" viewBox="0 0 35 36" fill="none" xmlns="http://www.w3.org/2000/svg">
<path fill-rule="evenodd" clip-rule="evenodd" d="M7.77754 32.5508C10.6554 34.4737 14.0388 35.5001 17.5 35.5001C22.1413 35.5001 26.5925 33.6563 29.8744 30.3744C33.1562 27.0925 35 22.6413 35 18.0001C35 14.5389 33.9736 11.1554 32.0507 8.27753C30.1278 5.39967 27.3947 3.15664 24.197 1.83211C20.9993 0.507574 17.4806 0.161027 14.0859 0.836269C10.6913 1.51151 7.57306 3.17822 5.12564 5.62564C2.67822 8.07306 1.01151 11.1913 0.33627 14.5859C-0.338972 17.9806 0.00757546 21.4993 1.33211 24.697C2.65664 27.8947 4.89967 30.6278 7.77754 32.5508ZM8.5877 4.66184C11.2257 2.89916 14.3273 1.95838 17.5 1.95838C21.7529 1.96353 25.8302 3.65526 28.8375 6.66254C31.8448 9.66983 33.5365 13.7471 33.5417 18.0001C33.5417 21.1728 32.6008 24.2743 30.8382 26.9123C29.0755 29.5503 26.5701 31.6064 23.6389 32.8206C20.7076 34.0347 17.4822 34.3524 14.3704 33.7335C11.2586 33.1145 8.40032 31.5867 6.15685 29.3432C3.91338 27.0997 2.38551 24.2414 1.76654 21.1296C1.14756 18.0178 1.46526 14.7924 2.67942 11.8611C3.89358 8.92989 5.94966 6.42453 8.5877 4.66184ZM4.94127 17.9223L4.88058 17.9806L4.86111 17.9223H4.94127ZM10.6945 17.9223H4.94127L12.8722 10.3L17.2084 6.13893C17.7917 5.53615 18.2389 5.57504 18.8222 6.13893L18.8573 6.17346C20.0249 7.32189 20.6084 7.89573 20.8155 8.58298C21.0223 9.26935 20.8537 10.0688 20.5168 11.6668L20.5139 11.6806L20.5121 11.6892C20.1043 13.6308 19.6966 15.5724 19.2695 17.5139C19.238 17.648 19.1924 17.7784 19.1333 17.9028H14.2528C14.2908 17.7194 14.3283 17.5398 14.3655 17.361L14.3656 17.3606L14.3657 17.3603C14.5378 16.5343 14.7062 15.7263 14.9139 14.6556C14.5695 14.9809 14.2418 15.302 13.924 15.6134C13.2729 16.2514 12.6633 16.8488 12.0361 17.3584C11.6659 17.6933 11.1927 17.8922 10.6945 17.9223ZM22.5559 19.2059H19.4253L19.367 19.0698C19.5089 19.6233 19.6485 20.1711 19.787 20.7142C20.2175 22.4034 20.6367 24.0477 21.0781 25.6809C21.182 25.933 21.2002 26.2122 21.1299 26.4757C21.0597 26.7392 20.9049 26.9723 20.6892 27.1392C20.0107 27.7455 19.3107 28.4376 18.6689 29.0722L18.6689 29.0722L18.6686 29.0725L18.6669 29.0742C18.445 29.2936 18.23 29.5062 18.0253 29.7059C17.2281 30.4837 16.9948 30.4059 16.7225 29.3364C16.5709 28.7372 16.4185 28.1379 16.2661 27.5385C15.6174 24.9872 14.9681 22.4335 14.3698 19.867C14.1948 19.2059 13.942 19.0503 13.3198 19.0503H4.90028H3.77253L4.43363 18.0587H2.25586C2.25422 20.7252 2.97693 23.342 4.34682 25.6297C5.7167 27.9174 7.68229 29.79 10.0336 31.0475C12.3137 32.3329 14.8889 33.0031 17.5063 32.9922C20.1237 32.9813 22.6932 32.2897 24.9625 30.9854C27.2318 29.6811 29.1228 27.8089 30.4497 25.5527C31.7766 23.2966 32.4938 20.7341 32.5309 18.117C31.9059 17.9221 31.2364 17.9219 30.6113 18.1164C29.9862 18.3109 29.435 18.6909 29.0309 19.2059C28.6022 19.7297 28.1007 20.188 27.5977 20.6476L27.5977 20.6476C27.2792 20.9386 26.9602 21.2301 26.6586 21.5392C26.1725 22.0642 25.9781 22.1808 25.3559 21.5392C24.7337 20.8975 24.092 20.2364 23.4114 19.5947C23.1778 19.373 22.8766 19.2361 22.5559 19.2059ZM23.6522 16.7939L23.6522 16.7938C24.3629 16.0034 25.1029 15.1802 25.8605 14.3835C25.9899 14.3169 26.1332 14.2822 26.2786 14.2822C26.4241 14.2822 26.5674 14.3169 26.6967 14.3835C27.4773 15.1507 28.2393 15.9458 29.0343 16.7753L29.0345 16.7755C29.3879 17.1443 29.7479 17.5199 30.1189 17.9029L22.6328 17.9224C22.9647 17.5586 23.3049 17.1801 23.6522 16.7939Z" fill="#0A0A0A"/>
</svg>
