<svg width="67" height="68" viewBox="0 0 67 68" fill="none" xmlns="http://www.w3.org/2000/svg">
<rect x="0.275426" y="12.2193" width="65.5513" height="43.5173" rx="4.13139" fill="white"/>
<rect x="0.275426" y="12.2193" width="65.5513" height="43.5173" rx="4.13139" stroke="#CCCCCC" stroke-width="0.550852"/>
<path d="M36.1245 48.5594C43.8773 48.5968 50.9538 42.1785 50.9538 34.3706C50.9538 25.833 43.8773 19.9309 36.1245 19.9341H29.4519C21.6066 19.9309 15.1484 25.8346 15.1484 34.3706C15.1484 42.1801 21.6066 48.5968 29.4519 48.5594H36.1245Z" fill="#0079BE"/>
<path d="M29.4829 21.1172C22.3132 21.1196 16.5043 26.9834 16.502 34.2208C16.5043 41.4574 22.3132 47.3213 29.4829 47.3237C36.6534 47.3213 42.4646 41.4574 42.4654 34.2208C42.4646 26.9834 36.6542 21.1196 29.4829 21.1172ZM21.2552 34.2208C21.2537 32.5475 21.757 30.9126 22.6994 29.5299C23.6418 28.1471 24.9794 27.0808 26.5374 26.4703V41.9705C24.9793 41.3605 23.6415 40.2944 22.6991 38.9117C21.7566 37.529 21.2534 35.8941 21.2552 34.2208ZM32.4276 41.9737V26.4695C33.9868 27.0791 35.3255 28.1453 36.2686 29.5286C37.2117 30.9118 37.7151 32.5475 37.713 34.2216C37.7148 35.8957 37.2112 37.5313 36.2682 38.9144C35.3252 40.2976 33.9866 41.3638 32.4276 41.9737Z" fill="white"/>
</svg>
