<svg width="68" height="68" viewBox="0 0 68 68" fill="none" xmlns="http://www.w3.org/2000/svg">
<rect x="1.2305" y="12.2754" width="65.5513" height="43.5173" rx="4.13139" fill="white"/>
<rect x="1.2305" y="12.2754" width="65.5513" height="43.5173" rx="4.13139" stroke="#CCCCCC" stroke-width="0.550852"/>
<g clip-path="url(#clip0_1446_6084)">
<path d="M56.0405 34.2055C56.0405 41.733 49.9504 47.8231 42.4229 47.8231C39.2455 47.8231 36.3328 46.7262 34.0254 44.9105C37.2028 42.4139 39.2076 38.5556 39.2076 34.2055C39.2076 29.8554 37.165 25.9971 34.0254 23.5006C36.3328 21.6849 39.2455 20.5879 42.4229 20.5879C49.9504 20.5879 56.0405 26.7158 56.0405 34.2055Z" fill="#0099DF"/>
<path d="M34.0248 23.5005C34.0248 23.5005 34.0248 23.5005 34.0248 23.5005C37.1644 25.9971 39.2071 29.8554 39.2071 34.2055C39.2071 38.5555 37.2022 42.4139 34.0248 44.9104L33.9868 44.9104C30.8473 42.4517 28.8047 38.5556 28.8047 34.2055C28.8047 29.8555 30.8473 25.9971 33.9869 23.5006C33.9869 23.5005 33.987 23.5006 33.9869 23.5006L34.0248 23.5005Z" fill="#6C6BBD"/>
<path d="M28.8055 34.2055C28.8055 29.8554 30.8482 25.9971 33.9878 23.5006C31.6804 21.6849 28.7677 20.5879 25.5903 20.5879C18.0628 20.5879 11.9727 26.678 11.9727 34.2055C11.9727 41.733 18.0628 47.8231 25.5903 47.8231C28.7677 47.8231 31.6804 46.7262 33.9878 44.9105C30.8482 42.4517 28.8055 38.5556 28.8055 34.2055Z" fill="#EB001B"/>
</g>
<defs>
<clipPath id="clip0_1446_6084">
<rect width="44.0681" height="27.2352" fill="white" transform="translate(11.9727 20.5879)"/>
</clipPath>
</defs>
</svg>
