<svg width="68" height="68" viewBox="0 0 68 68" fill="none" xmlns="http://www.w3.org/2000/svg">
<rect x="1.25394" y="12.2754" width="65.5513" height="43.5173" rx="4.13139" fill="white"/>
<rect x="1.25394" y="12.2754" width="65.5513" height="43.5173" rx="4.13139" stroke="#CCCCCC" stroke-width="0.550852"/>
<g clip-path="url(#clip0_1446_6077)">
<path d="M56.0639 34.2055C56.0639 41.733 49.9739 47.8231 42.4464 47.8231C39.2689 47.8231 36.3563 46.7262 34.0488 44.9105C37.2263 42.4139 39.2311 38.5556 39.2311 34.2055C39.2311 29.8554 37.1884 25.9971 34.0488 23.5006C36.3563 21.6849 39.2689 20.5879 42.4464 20.5879C49.9739 20.5879 56.0639 26.7158 56.0639 34.2055Z" fill="#F79E1B"/>
<path d="M34.0482 23.5005C34.0482 23.5005 34.0482 23.5005 34.0482 23.5005C37.1879 25.9971 39.2305 29.8554 39.2305 34.2055C39.2305 38.5555 37.2257 42.4139 34.0482 44.9104L34.0103 44.9104C30.8707 42.4517 28.8281 38.5556 28.8281 34.2055C28.8281 29.8555 30.8708 25.9971 34.0104 23.5006C34.0103 23.5005 34.0104 23.5006 34.0104 23.5006L34.0482 23.5005Z" fill="#FF5F00"/>
<path d="M28.829 34.2055C28.829 29.8554 30.8716 25.9971 34.0112 23.5006C31.7038 21.6849 28.7912 20.5879 25.6137 20.5879C18.0862 20.5879 11.9961 26.678 11.9961 34.2055C11.9961 41.733 18.0862 47.8231 25.6137 47.8231C28.7912 47.8231 31.7038 46.7262 34.0112 44.9105C30.8716 42.4517 28.829 38.5556 28.829 34.2055Z" fill="#EB001B"/>
</g>
<defs>
<clipPath id="clip0_1446_6077">
<rect width="44.0681" height="27.2352" fill="white" transform="translate(11.9961 20.5879)"/>
</clipPath>
</defs>
</svg>
