<svg width="68" height="68" viewBox="0 0 68 68" fill="none" xmlns="http://www.w3.org/2000/svg">
<rect x="1.25394" y="12.2193" width="65.5513" height="43.5173" rx="4.13139" fill="white"/>
<rect x="1.25394" y="12.2193" width="65.5513" height="43.5173" rx="4.13139" stroke="#CCCCCC" stroke-width="0.550852"/>
<path d="M43.4735 28.3371C43.0075 28.3344 42.5455 28.4237 42.114 28.6C41.6826 28.7762 41.2902 29.0358 40.9593 29.364L40.794 28.5496H37.9729V43.8003L41.1835 43.1039V39.4092C41.8221 39.944 42.6288 40.2366 43.4617 40.2355C45.7517 40.2355 47.8528 38.3587 47.8528 34.2037C47.8528 30.4028 45.7281 28.3371 43.4735 28.3371ZM42.7062 37.3435C42.4246 37.3598 42.1429 37.3131 41.8816 37.2069C41.6203 37.1008 41.3858 36.9377 41.1953 36.7297V31.8783C41.3866 31.6626 41.6237 31.4925 41.8892 31.3801C42.1547 31.2678 42.4419 31.2162 42.7299 31.2291C43.9103 31.2291 44.7129 32.5629 44.7129 34.2745C44.7129 35.9861 43.8984 37.3435 42.7062 37.3435Z" fill="#635BFF"/>
<path d="M53.7784 28.3371C50.6857 28.3371 48.8089 31.0048 48.8089 34.3689C48.8089 38.3469 51.028 40.3653 54.1915 40.3653C55.4262 40.3855 56.6453 40.0888 57.7327 39.5036V36.8478C56.7452 37.346 55.6516 37.5971 54.5456 37.5796C53.2708 37.5796 52.1848 37.1192 52.0196 35.5729H58.3701C58.3701 35.3959 58.3701 34.6994 58.3701 34.3925C58.4763 31.0048 56.871 28.3371 53.7784 28.3371ZM52.0432 33.1413C52.0432 31.654 52.9521 31.0284 53.7548 31.0284C54.5574 31.0284 55.4073 31.654 55.4073 33.1413H52.0432Z" fill="#635BFF"/>
<path d="M29.3088 29.4349L29.1081 28.4669H26.3696V39.9286H29.533V32.1616C29.8187 31.8147 30.2035 31.5633 30.6359 31.441C31.0683 31.3186 31.5278 31.3312 31.9528 31.477V28.4669C31.4699 28.2778 30.9345 28.2717 30.4474 28.45C29.9604 28.6283 29.5554 28.9786 29.3088 29.4349Z" fill="#635BFF"/>
<path d="M13.3262 31.9137C13.3262 31.3943 13.7511 31.1937 14.4239 31.1937C15.539 31.2177 16.632 31.5091 17.611 32.0435V28.9391C16.5988 28.5299 15.5156 28.3252 14.4239 28.3371C11.8153 28.3371 10.0801 29.73 10.0801 32.0672C10.0801 35.7264 14.9669 35.1362 14.9669 36.7061C14.9669 37.3199 14.4475 37.5206 13.7865 37.5206C12.5394 37.4477 11.3266 37.0839 10.2453 36.4582V39.6335C11.3598 40.1306 12.5662 40.3879 13.7865 40.3889C16.4542 40.3889 18.2956 39.0315 18.2956 36.6589C18.2366 32.6928 13.3262 33.401 13.3262 31.9137Z" fill="#635BFF"/>
<path d="M22.5569 25.752L19.4288 26.4367V36.9776C19.4127 37.4218 19.4873 37.8647 19.6481 38.2791C19.809 38.6935 20.0526 39.0708 20.3641 39.3878C20.6757 39.7049 21.0486 39.9551 21.4601 40.1232C21.8716 40.2913 22.3131 40.3736 22.7575 40.3653C23.533 40.4 24.3057 40.2503 25.0121 39.9286V37.2727C24.599 37.4498 22.5805 38.0518 22.5805 36.0923V31.3707H25.0121V28.6086H22.5805L22.5569 25.752Z" fill="#635BFF"/>
<path d="M33.145 27.4754L36.3675 26.8026V24.2529L33.145 24.9258V27.4754Z" fill="#635BFF"/>
<path d="M36.3675 28.5496H33.145V39.9286H36.3675V28.5496Z" fill="#635BFF"/>
</svg>
