<svg width="67" height="68" viewBox="0 0 67 68" fill="none" xmlns="http://www.w3.org/2000/svg">
<rect x="0.275426" y="12.2754" width="65.5513" height="43.5173" rx="4.13139" fill="white"/>
<rect x="0.275426" y="12.2754" width="65.5513" height="43.5173" rx="4.13139" stroke="#CCCCCC" stroke-width="0.550852"/>
<g clip-path="url(#clip0_1446_6072)">
<path d="M43.9277 26.4311C43.1135 26.1081 41.8222 25.7515 40.2255 25.7515C36.1494 25.7515 33.279 27.9251 33.2614 31.0327C33.2275 33.3255 35.3165 34.599 36.8789 35.3635C38.4758 36.1446 39.0186 36.6545 39.0186 37.3509C39.0024 38.4203 37.7282 38.9132 36.5398 38.9132C34.8919 38.9132 34.0089 38.6591 32.6671 38.0641L32.1235 37.8091L31.5459 41.3925C32.514 41.8335 34.2976 42.2249 36.1494 42.2421C40.4803 42.2421 43.2999 40.1021 43.3334 36.7904C43.3498 34.9732 42.2468 33.5808 39.8687 32.443C38.425 31.7125 37.5409 31.22 37.5409 30.4727C37.5578 29.7933 38.2887 29.0974 39.9183 29.0974C41.2602 29.0634 42.2461 29.3859 42.993 29.7087L43.3663 29.8782L43.9277 26.4311Z" fill="url(#paint0_linear_1446_6072)"/>
<path d="M28.9647 42.0041H24.8371L27.4188 26.0408H31.5462L28.9647 42.0041Z" fill="url(#paint1_linear_1446_6072)"/>
<path fill-rule="evenodd" clip-rule="evenodd" d="M54.5086 26.0408H51.3159C50.3313 26.0408 49.5833 26.3293 49.1585 27.3653L43.0275 42.0039H47.3585C47.3585 42.0039 48.0715 40.0337 48.2248 39.6093H53.5242C53.6427 40.1698 54.0168 42.0039 54.0168 42.0039H57.8385L54.5086 26.0408ZM49.4136 36.3489C49.7535 35.4318 51.0615 31.8825 51.0615 31.8825C51.0546 31.8962 51.1078 31.7487 51.1871 31.5288L51.1881 31.5261L51.1887 31.5244C51.3072 31.1959 51.4831 30.7084 51.6046 30.3542L51.893 31.7297C51.893 31.7297 52.6747 35.5508 52.8444 36.3489H49.4136Z" fill="url(#paint2_linear_1446_6072)"/>
<path d="M21.3895 26.0408L17.3472 36.9263L16.9055 34.7186L16.9051 34.7172L15.4619 27.3827C15.2242 26.3631 14.4938 26.0745 13.5936 26.0408H6.9527L6.88477 26.3634C8.50446 26.7776 9.95313 27.3744 11.2225 28.1165L14.9014 41.9872H19.2662L25.7541 26.0408H21.3895Z" fill="url(#paint3_linear_1446_6072)"/>
</g>
<defs>
<linearGradient id="paint0_linear_1446_6072" x1="6.88477" y1="34.0315" x2="57.8385" y2="34.0315" gradientUnits="userSpaceOnUse">
<stop stop-color="#222357"/>
<stop offset="1" stop-color="#254AA5"/>
</linearGradient>
<linearGradient id="paint1_linear_1446_6072" x1="6.88477" y1="34.0315" x2="57.8385" y2="34.0315" gradientUnits="userSpaceOnUse">
<stop stop-color="#222357"/>
<stop offset="1" stop-color="#254AA5"/>
</linearGradient>
<linearGradient id="paint2_linear_1446_6072" x1="6.88477" y1="34.0315" x2="57.8385" y2="34.0315" gradientUnits="userSpaceOnUse">
<stop stop-color="#222357"/>
<stop offset="1" stop-color="#254AA5"/>
</linearGradient>
<linearGradient id="paint3_linear_1446_6072" x1="6.88477" y1="34.0315" x2="57.8385" y2="34.0315" gradientUnits="userSpaceOnUse">
<stop stop-color="#222357"/>
<stop offset="1" stop-color="#254AA5"/>
</linearGradient>
<clipPath id="clip0_1446_6072">
<rect width="50.9538" height="16.4906" fill="white" transform="translate(6.88477 25.7515)"/>
</clipPath>
</defs>
</svg>
